
<svg xmlns="http://www.w3.org/2000/svg" viewBox="0 0 55 55">
	<style type="text/css">
		.st0{fill:#800090;filter:url(#dropshadow);}
		.st1{fill:#A600C9;}
		.st2{opacity:0.48;fill:url(#SVGID_1_);enable-background:new    ;}
		.st3{opacity:0.5;fill:url(#SVGID_2_);enable-background:new    ;}
		.st4{fill:none;stroke:#000000;stroke-width:1.5;stroke-miterlimit:10;}
	</style>
	<radialGradient id="SVGID_1_" cx="-634.6219" cy="102.7423" r="37.9838" gradientTransform="matrix(1.035340e-13 -1 -0.8935 -9.250636e-14 118.9403 -591.8956)" gradientUnits="userSpaceOnUse">
		<stop  offset="1.448989e-02" style="stop-color:#FFFFFF"/>
		<stop  offset="0.1009" style="stop-color:#F8F8F8;stop-opacity:0.9123"/>
		<stop  offset="0.2279" style="stop-color:#E4E4E4;stop-opacity:0.7834"/>
		<stop  offset="0.3799" style="stop-color:#C4C4C4;stop-opacity:0.6292"/>
		<stop  offset="0.5513" style="stop-color:#979797;stop-opacity:0.4553"/>
		<stop  offset="0.7389" style="stop-color:#5D5D5D;stop-opacity:0.265"/>
		<stop  offset="0.9371" style="stop-color:#181818;stop-opacity:6.384778e-02"/>
		<stop  offset="1" style="stop-color:#000000;stop-opacity:0"/>
	</radialGradient>
	<radialGradient id="SVGID_2_" cx="-1026.3688" cy="35.1631" r="36.4297" gradientTransform="matrix(8.499001e-14 -0.5 -0.7335 -4.625318e-14 52.9498 -470.1087)" gradientUnits="userSpaceOnUse">
		<stop  offset="1.448989e-02" style="stop-color:#FFFFFF"/>
		<stop  offset="0.1009" style="stop-color:#F8F8F8;stop-opacity:0.9123"/>
		<stop  offset="0.2279" style="stop-color:#E4E4E4;stop-opacity:0.7834"/>
		<stop  offset="0.3799" style="stop-color:#C4C4C4;stop-opacity:0.6292"/>
		<stop  offset="0.5513" style="stop-color:#979797;stop-opacity:0.4553"/>
		<stop  offset="0.7389" style="stop-color:#5D5D5D;stop-opacity:0.265"/>
		<stop  offset="0.9371" style="stop-color:#181818;stop-opacity:6.384778e-02"/>
		<stop  offset="1" style="stop-color:#000000;stop-opacity:0"/>
	</radialGradient>
	<filter filterUnits="objectBoundingBox" id="dropshadow">
		<feOffset dx="0" dy="1.5" in="SourceAlpha" result="defappShadowOffsetOuter1"></feOffset>
		<feGaussianBlur stdDeviation="2" in="defappShadowOffsetOuter1" result="defappShadowBlurOuter1"></feGaussianBlur>
		<feColorMatrix values="0 0 0 0 0   0 0 0 0 0   0 0 0 0 0  0 0 0 .75 0" type="matrix" in="defappShadowBlurOuter1" result="defappShadowMatrixOuter1"></feColorMatrix>
		<feMerge>
			<feMergeNode in="defappShadowMatrixOuter1"/>
			<feMergeNode in="SourceGraphic"/>
		</feMerge>
	</filter>
	<path class="st0" d="M45.7,50.8H9.3C5.8,50.8,3,48,3,44.5V8.1c0-3.5,2.8-6.3,6.3-6.3h36.4c3.5,0,6.3,2.8,6.3,6.3v36.4
		C52,48,49.2,50.8,45.7,50.8z"/>
	<path class="st1" d="M45.7,43.1H9.3c-3.5,0-6.3-2.8-6.3-6.3V8.1c0-3.5,2.8-6.3,6.3-6.3h36.4c3.5,0,6.3,2.8,6.3,6.3v28.7
		C52,40.3,49.2,43.1,45.7,43.1z"/>
	<path class="st2" d="M45.7,43.1H9.3c-3.5,0-6.3-2.8-6.3-6.3V8.1c0-3.5,2.8-6.3,6.3-6.3h36.4c3.5,0,6.3,2.8,6.3,6.3v28.7
		C52,40.3,49.2,43.1,45.7,43.1z"/>
	<rect x="8.1" y="42.1" class="st3" width="38.6" height="1"/>
	<path class="st4" d="M45.7,50.8H9.3C5.8,50.8,3,48,3,44.5V8.1c0-3.5,2.8-6.3,6.3-6.3h36.4c3.5,0,6.3,2.8,6.3,6.3v36.4
		C52,48,49.2,50.8,45.7,50.8z"/>
	<circle cx="18" cy="16.8" r="5"/>
	<circle cx="37" cy="16.8" r="5"/>
</svg>
