<svg xmlns="http://www.w3.org/2000/svg" width="0" height="0">

	<svg id="icon-undo" viewBox="0 0 13 13">
		<style type="text/css">
			.st0{fill:#333;}
		</style>
		<path class="st0" d="M6.5,1.9C5,1.9,3.6,2.5,2.6,3.5L1,1.9V6h4.1L3.6,4.5c0.7-0.7,1.8-1.2,2.9-1.2c2.3,0,4.1,1.8,4.1,4.1c0,1.2-0.5,2.3-1.4,3.1 l0.9,1c1.1-1,1.9-2.5,1.9-4.1C12,4.3,9.5,1.9,6.5,1.9z"/>
	</svg>

	<svg id="icon-redo" viewBox="0 0 13 13">
		<style type="text/css">
			.st0{fill:#333;}
		</style>
		<path class="st0" d="M1,7.4c0,1.6,0.7,3.1,1.8,4.1l0.9-1C2.9,9.7,2.4,8.6,2.4,7.4c0-2.3,1.8-4.1,4.1-4.1c1.1,0,2.2,0.5,2.9,1.2L7.9,6H12V1.9 l-1.6,1.6c-1-1-2.4-1.6-3.9-1.6C3.5,1.9,1,4.4,1,7.4z"/>
	</svg>

	<svg id="icon-cog" viewBox="0 0 13 13">
		<style type="text/css">
			.st0{fill:#333;}
		</style>
		<path class="st0" d="M10.6,7c0-0.2,0-0.3,0-0.5c0-0.2,0-0.4,0-0.5l1.2-0.9c0.1-0.1,0.1-0.2,0.1-0.3l-1.1-1.9c-0.1-0.1-0.2-0.2-0.3-0.1L9,3.2
			C8.7,3,8.4,2.8,8.1,2.7L7.9,1.2C7.8,1.1,7.7,1,7.6,1H5.4C5.3,1,5.2,1.1,5.1,1.2L4.9,2.7C4.6,2.8,4.3,3,4,3.2L2.6,2.7
			c-0.1,0-0.3,0-0.3,0.1L1.2,4.7C1.1,4.8,1.2,5,1.3,5.1L2.4,6c0,0.2-0.1,0.4-0.1,0.5s0,0.4,0,0.5L1.3,7.9C1.2,8,1.1,8.2,1.2,8.3
			l1.1,1.9c0.1,0.1,0.2,0.2,0.3,0.1L4,9.8c0.3,0.2,0.6,0.4,0.9,0.5l0.2,1.5c0,0.1,0.1,0.2,0.3,0.2h2.2c0.1,0,0.3-0.1,0.3-0.2l0.2-1.5
			C8.4,10.2,8.7,10,9,9.8l1.4,0.5c0.1,0,0.3,0,0.3-0.1l1.1-1.9c0.1-0.1,0-0.3-0.1-0.3L10.6,7z M6.5,8.9c-1.3,0-2.4-1.1-2.4-2.4
			s1.1-2.4,2.4-2.4s2.4,1.1,2.4,2.4S7.8,8.9,6.5,8.9z"/>
	</svg>

	<svg id="icon-heart" viewBox="0 0 13 13">
		<path fill="#333" d="M12.9,4.4c0,1.7-1.6,3.1-1.6,3.2l-4.4,4.3C6.7,11.9,6.6,12,6.5,12s-0.2,0-0.3-0.1L1.7,7.6C1.7,7.5,0.1,6.1,0.1,4.4
			C0.1,2.3,1.4,1,3.5,1c1.2,0,2.4,1,3,1.5C7.1,2,8.2,1,9.5,1C11.6,1,12.9,2.3,12.9,4.4z"/>
	</svg>

	<svg id="neg-nw-ne" viewBox="0 0 6 16">
		<style type="text/css">
			.st0{fill:#999;}
			.st1{fill:#7e7e7e;stroke:#adadad;stroke-width:1.1;stroke-miterlimit:10;}
			.st2{fill:none;stroke:#000;stroke-width:2;stroke-miterlimit:10;}
		</style>
		<rect class="st0" width="6" height="6"/>
		<path class="st1" d="M6,0.5C3,0.5,0.5,3,0.5,6.1V16c0-3.1,2.5-5.6,5.5-5.6"/>
		<path class="st2" d="M6,11L6,11c-2.7,0-5,2.2-5,5"/>
	</svg>

	<svg id="neg-ne-nw" viewBox="0 0 6 16">
		<style type="text/css">
			.st0{fill:#999;}
			.st1{fill:#7e7e7e;stroke:#adadad;stroke-width:1.1;stroke-miterlimit:10;}
			.st2{fill:none;stroke:#000;stroke-width:2;stroke-miterlimit:10;}
		</style>
		<rect class="st0" width="6" height="6"/>
		<path class="st1" d="M0,10.4c3,0,5.5,2.5,5.5,5.6V6.1C5.5,3,3,0.5,0,0.5"/>
		<path class="st2" d="M5,16c0-2.8-2.3-5-5-5l0,0"/>
	</svg>

	<svg id="neg-ne-es" viewBox="0 0 6 16">
		<style type="text/css">
			.st0{fill:#999;}
			.st1{fill:#8d8d8d;stroke:#848484;stroke-width:1.1;stroke-miterlimit:10;}
			.st2{fill:none;stroke:#000;stroke-width:2;stroke-miterlimit:10;}
		</style>
		<rect class="st0" y="10" width="6" height="6"/>
		<path class="st1" d="M6,5.6C3,5.6,0.5,3.1,0.5,0v9.9C0.5,13,3,15.5,6,15.5"/>
		<path class="st2" d="M1,0c0,2.8,2.3,5,5,5l0,0"/>
	</svg>

	<svg id="neg-ne-ws" viewBox="0 0 6 16">
		<style type="text/css">
			.st0{fill:#999;}
			.st1{fill:#8d8d8d;stroke:#848484;stroke-width:1.1;stroke-miterlimit:10;}
			.st2{fill:none;stroke:#000;stroke-width:2;stroke-miterlimit:10;}
		</style>
		<rect class="st0" y="10" width="6" height="6"/>
		<path class="st1" d="M0,15.5c3,0,5.5-2.5,5.5-5.6V0C5.5,3.1,3,5.6,0,5.6"/>
		<path class="st2" d="M0,5L0,5c2.7,0,5-2.2,5-5"/>
	</svg>

	<svg id="mini-neg-nw-ne" viewBox="0 0 6 7">
		<style type="text/css">
			.st0{fill:#999;}
			.st1{fill:#7e7e7e;stroke:#adadad;stroke-width:1.1;stroke-miterlimit:10;}
			.st2{fill:none;stroke:#222;stroke-width:2;stroke-miterlimit:10;}
		</style>
		<rect class="st0" width="6" height="5"/>
		<path class="st1" d="M6,0.6l-1.1,0c-3.4,0-4.4,2-4.4,5.5V9c0-2.7,2.1-4.2,4.5-4.3l1,0"/>
		<path class="st2" d="M1,10V9c0-2.5,1.3-4,4-4l0,0h1"/>
	</svg>

	<svg id="mini-neg-ne-nw" viewBox="0 0 6 10">
		<style type="text/css">
			.st0{fill:#999;}
			.st1{fill:#7e7e7e;stroke:#adadad;stroke-width:1.1;stroke-miterlimit:10;}
			.st2{fill:none;stroke:#222;stroke-width:2;stroke-miterlimit:10;}
		</style>
		<rect class="st0" width="6" height="5"/>
		<path class="st1" d="M0,4.8l1,0c2.4,0,4.5,1.5,4.5,4.3V6.1c0-3.5-1-5.5-4.4-5.5L0,0.6"/>
		<path class="st2" d="M5,10V9c0-2.5-1.3-4-4-4l0,0H0"/>
	</svg>

	<svg id="mini-neg-ne-es" viewBox="0 0 6 7">
		<style type="text/css">
			.st0{fill:#999;}
			.st1{fill:none;stroke:#222;stroke-width:2;stroke-miterlimit:10;}
		</style>
		<path class="st0" d="M6,5.5C2.7,5.6,1,4.1,0,0l0,7h6"/>
		<path class="st1" d="M1,0v1c0,2.5,1.4,4,4,4l0,0h1"/>
	</svg>

	<svg id="mini-neg-ne-ws" viewBox="0 0 6 7">
		<style type="text/css">
			.st0{fill:#999;}
			.st1{fill:none;stroke:#222;stroke-width:2;stroke-miterlimit:10;}
		</style>
		<path class="st0" d="M0,7h6V0C5,4.1,3.3,5.6,0,5.5"/>
		<path class="st1" d="M0,5h1l0,0c2.6,0,4-1.5,4-4V0"/>
	</svg>
	
	<svg id="icon-arrow-left" viewBox="0 0 21 21">
		<style type="text/css">
			.st0{fill:#fff;}
		</style>
		<polygon class="st0" points="18.2,10.3 2.8,3.6 6.8,10.3 2.8,17.4 "/>
	</svg>

	<svg id="icon-arrow-right" viewBox="0 0 21 21">
		<style type="text/css">
			.st0{fill:#fff;}
		</style>
		<polygon class="st0" points="2.8,10.7 18.2,17.4 14.2,10.7 18.2,3.6 "/>
	</svg>

	<svg id="icon-arrow-up" viewBox="0 0 21 21">
		<style type="text/css">
			.st0{fill:#fff;}
		</style>
		<polygon class="st0" points="10.3,2.8 3.6,18.2 10.3,14.2 17.4,18.2 "/>
	</svg>

	<svg id="icon-arrow-down" viewBox="0 0 21 21">
		<style type="text/css">
			.st0{fill:#fff;}
		</style>
		<polygon class="st0" points="10.7,18.2 17.4,2.8 10.7,6.8 3.6,2.8 "/>
	</svg>

	<svg id="icon-p" viewBox="0 0 21 21">
		<style type="text/css">
			.st0{fill:#fff;}
		</style>
		<path class="st0" d="M6.3,3h3.9c1.1,0,1.9,0.1,2.5,0.3c0.6,0.2,1,0.4,1.3,0.7s0.5,0.7,0.6,1.1c0.1,0.4,0.2,1.1,0.2,2.1v1.3c0,1-0.1,1.7-0.3,2.1
		s-0.6,0.8-1.1,1c-0.5,0.2-1.2,0.4-2.1,0.4h-1V18H6.3V3z M10.2,5.6v3.8c0.1,0,0.2,0,0.3,0c0.4,0,0.6-0.1,0.7-0.3s0.2-0.5,0.2-1.1
		V6.8c0-0.5-0.1-0.8-0.2-1C11,5.6,10.7,5.6,10.2,5.6z"/>
	</svg>

	<svg id="icon-escape" viewBox="0 0 21 21">
		<style type="text/css">
			.st0{fill:#fff;}
		</style>
		<path class="st0" d="M0.9,5.1h4.7v2.1H3.7v2.1h1.7v2.1H3.7v2.4h2v2.1H0.9V5.1z"/>
		<path class="st0" d="M12.5,8.4H9.9V7.6c0-0.4,0-0.6-0.1-0.7c0-0.1-0.2-0.1-0.3-0.1c-0.2,0-0.3,0.1-0.4,0.2C8.9,7.1,8.9,7.3,8.9,7.6
			c0,0.4,0,0.6,0.1,0.8S9.4,8.8,9.8,9c1.2,0.7,2.1,1.4,2.4,1.8c0.3,0.5,0.5,1.2,0.5,2.3c0,0.8-0.1,1.3-0.3,1.7
			c-0.2,0.4-0.5,0.7-1.1,0.9c-0.5,0.2-1.1,0.4-1.8,0.4c-0.7,0-1.4-0.1-1.9-0.4c-0.5-0.3-0.9-0.6-1.1-1.1c-0.2-0.5-0.2-1.1-0.2-1.9V12
			H9v1.3c0,0.4,0,0.7,0.1,0.8c0.1,0.1,0.2,0.2,0.4,0.2s0.3-0.1,0.4-0.2s0.1-0.4,0.1-0.6c0-0.6-0.1-1.1-0.3-1.2c-0.2-0.2-0.6-0.5-1.3-1
			c-0.7-0.5-1.1-0.8-1.4-1C6.8,10,6.7,9.7,6.5,9.4C6.4,9,6.3,8.6,6.3,8c0-0.8,0.1-1.4,0.3-1.8c0.2-0.4,0.5-0.7,1-0.9s1.1-0.3,1.7-0.3
			c0.7,0,1.4,0.1,1.9,0.4c0.5,0.2,0.9,0.5,1,0.9s0.2,1,0.2,1.8L12.5,8.4L12.5,8.4z"/>
		<path class="st0" d="M20.1,9.8h-2.8V8c0-0.5,0-0.9-0.1-1c0-0.1-0.2-0.2-0.4-0.2S16.4,6.9,16.3,7c0,0.2-0.1,0.5-0.1,1.1v5
			c0,0.5,0,0.9,0.1,1c0,0.2,0.2,0.2,0.4,0.2s0.4-0.1,0.4-0.2c0-0.2,0.1-0.5,0.1-1.1v-1.4h2.8V12c0,1.1-0.1,1.9-0.2,2.4
			c-0.1,0.5-0.5,0.9-1.1,1.2s-1.2,0.5-2,0.5c-0.8,0-1.5-0.1-2.1-0.5c-0.5-0.3-0.9-0.7-1.1-1.2c-0.2-0.5-0.3-1.3-0.3-2.4V8.9
			c0-0.8,0-1.4,0.1-1.7c0-0.4,0.2-0.8,0.5-1.1c0.3-0.4,0.6-0.6,1.1-0.9c0.5-0.2,1-0.3,1.6-0.3c0.8,0,1.5,0.2,2.1,0.5s0.9,0.7,1.1,1.2
			C20,7,20,7.8,20,8.8L20.1,9.8L20.1,9.8z"/>
	</svg>
</svg>