<svg xmlns="http://www.w3.org/2000/svg" width="0" height="0">

	<svg id="sokoban-logo" viewBox="0 0 535 133" cache="keep">
		<style type="text/css">
			.sokoban-st0{fill:#f2f2f2;}
		</style>
		<path class="sokoban-st0" d="M86.4,14.7L71.5,32.2c12.1,3.8,18.1,10.5,18.1,20c0,0.8-0.1,1.6-0.1,2.4H93l-5.7,30.2l-5-1.7
			c-4.1,4.5-8.4,7.2-12.8,7.9c-4.4,0.6-9.2,0.1-14.4-1.6L43.1,85c-5.8-2.1-9.7-3-11.8-2.8c-2.3,0.2-4,1-5.3,2.4
			c-0.5,0.6-0.8,1.7-0.8,3.2c0,1.7,0.4,4,1.2,6.9L3.8,48.2c2.4-1.7,6.5-2.5,12.4-2.5c-9.7-1.5-14.6-5.1-14.6-11
			c0-5.2,3.7-12.2,11-20.9c2.1-2.5,5.2-3.7,9.3-3.7c4.4,0,10,1.4,16.9,4.3c6.4,2.8,12.5,4.1,18.1,4.1c8.6,0,16.2-3.1,23-9.5L86.4,14.7
			z M22.5,29.2c-2,0-3.6,1.5-4.8,4.6c-0.2,0.5-0.3,1-0.3,1.4c0,1.7,1.6,2.5,4.8,2.5c2.1,0,4.9-0.4,8.4-1.1l6.6-1.2
			c-5.7-2.8-10-4.7-12.9-5.8C23.7,29.3,23.1,29.2,22.5,29.2z M40.8,48.2c7.7,2.4,14.2,5,19.4,7.7c0.8,0.4,1.5,0.6,2.2,0.6
			c1.6,0.1,2.7-1.3,3.2-4c0.1-0.5,0.1-1.1,0.1-1.5c0-2.7-1.8-4-5.5-4c-4.3,0.1-10,0.4-17.1,1.1H40.8z"/>
		<path class="sokoban-st0" d="M142.2,37.2c-3.4,2.1-5.1,4-5.1,5.8c0,0.3,0,0.7,0.2,1c0.8,2.1,3.7,5,8.4,8.6c4.5,3.4,7.7,6.2,9.5,8.1
			c3,3.2,5.1,6.7,6.4,10.6c0.3,1.2,0.5,2.5,0.5,4c0,3.1-0.9,6.8-2.6,11.1c-2.6,6.2-8.3,11.8-17,16.7c-7.9,4.5-16.2,6.7-24.7,6.7
			c-0.8,0-1.7,0-2.6,0c-8-0.4-13.8-2.8-17.4-7.1c-3.4-4-5-10.2-4.8-18.3c0.2-11.1,3.1-19.4,8.5-25l-6.9-4.7
			c17-7.7,31.5-15.2,43.6-22.6L142.2,37.2z M105.5,78c0,0.6,0,1.3,0.1,1.9c0.3,4.1,1.9,6.2,4.8,6.2c1.6,0,3.7-0.6,6.1-2
			c3.6-2,5.4-4.2,5.4-6.7c0-3.6-3.7-7.6-11.3-12C107.2,68.5,105.5,72.7,105.5,78z"/>
		<path class="sokoban-st0" d="M192.3,9.3c5.5,3.5,13.4,9.3,23.9,17.1l-0.5,20.4l-5.2-3.8c0.2,7.5-0.3,12.8-1.4,15.9
			c-1.5,4.1-5.2,8.1-10.8,11.8l20.9-8.1l0.3,1.2l9.4,15.9c-3.2,5.1-4.8,9.1-4.8,12.1c0,4.6,3.8,6.8,11.4,6.4l2.2,3.8l-33.9,27.2
			c-1.7-6.2-2.6-12.4-2.6-18.4c0-1.7,0-3.4,0.2-5.1c0-1.4,0.4-4.1,1.4-8l-6.4,14l-35.7-16l9.9-19.7c-0.7,1.5-1,2.9-1,4.1
			c0,1.4,0.5,2.5,1.5,3.3l6.8,3c-4.9-10.1-7.4-21.2-7.4-33.5c0-5.1,0.4-10.4,1.3-15.9l15.2-9.4c-1.5,7.9-2.3,15.2-2.3,21.9
			c0,5.1,0.4,9.9,1.4,14.2c3.5-2.4,6.4-6.6,8.4-12.5c0.8-2.3,1.2-5.9,1.2-10.6c0-7.4-0.9-17.7-2.9-31L192.3,9.3z M196,88.1
			c0.7,3.1,3,6.3,6.7,9.7c1.3-5.7,3.5-10.6,6.6-14.7L196,88.1z"/>
		<path class="sokoban-st0" d="M281.3,12.1c-3.6,2.2-5.4,4.3-5.4,6.2c0,0.4,0.1,0.7,0.2,1.1c0.9,2.2,3.9,5.3,9,9.2c4.8,3.7,8.2,6.6,10.2,8.7
			c3.2,3.4,5.5,7.2,6.8,11.3c0.4,1.3,0.6,2.7,0.6,4.3c0,3.4-1,7.3-2.8,11.8c-2.8,6.6-8.8,12.6-18.2,17.9c-8.5,4.8-17.3,7.2-26.4,7.2
			c-0.9,0-1.9,0-2.8-0.1c-8.6-0.5-14.8-3-18.6-7.6c-3.7-4.3-5.4-10.8-5.2-19.5c0.3-11.9,3.3-20.7,9.1-26.6l-7.3-5.1
			c18.1-8.2,33.7-16.2,46.6-24.1L281.3,12.1z M242.1,55.7c0,0.7,0.1,1.4,0.1,2.1c0.3,4.4,2,6.6,5.2,6.6c1.8,0,3.9-0.7,6.5-2.1
			c3.8-2.1,5.7-4.5,5.7-7.2c0.1-3.9-4-8.1-12.1-12.8C243.9,45.5,242.1,50,242.1,55.7z"/>
		<path class="sokoban-st0" d="M324.2,17.7c2.3-1.2,4.9-2.2,7.6-2.9c8.6,0,12.9,3.9,12.9,11.4c0,6.4-3.2,15.6-9.6,27.6
			c1.8-0.2,3.6-0.3,5.3-0.3c12.9,0,20.1,6.5,21.7,19.6c0.1,1.6,0.2,3.2,0.2,4.8c0,20.7-16.4,32.1-49.3,34.3
			c-6.8,0.4-12.7,2.8-17.6,7.2c-1.3-0.8-3-1.6-4.9-2.2l19.3-36.9l3.3,1.1l-3-27.8l-5.2,8L303.8,35l4.5-5.2l0.7-4.6l15.3-11.5
			L324.2,17.7z M323.5,38.3c-0.5,0.7-0.8,2.2-0.8,4.5c0,2.5,0.3,6,1,10.5c3-4.1,5.1-8.9,6.3-14.2l0.8-3.4c-0.3-1.6-1-2.4-1.9-2.4
			c-1.1,0-2.8,1.3-4.8,3.8L323.5,38.3z M325.8,71.3l1.6,6.8l2,6.1c1.1,0.3,2.8,0.2,5.1-0.2c6.3-1.3,9.9-3.6,10.7-6.8
			c0.2-0.9,0.3-1.8,0.3-2.5c0-3.7-2.6-5.7-7.5-5.7c-1.6,0-3.3,0.2-5.1,0.6L325.8,71.3z"/>
		<path class="sokoban-st0" d="M534,44.2c-4.8,0.1-7,3.3-6.6,9.6c0,1.2,0.1,2.5,0.1,4c0,5.9-0.6,13.6-1.7,23.1c-1.4,11.9-4.4,20.9-9.1,27.1
			c-6.1,0.2-12.9,0.9-20.5,2.1c-12.1-15.8-18.2-32.6-18.4-50.5c-0.3,8.5-1,15-2.2,19.6l4.9,4.8c-0.5,8.1-2.4,16.1-5.6,24
			c-12.8,0.5-24.7,1.1-35.5,1.7l-1.4-5.6c6.2-5.4,11-13.2,14.3-23.5l7.7-3.4c2.2-4.7,3.8-10.4,4.7-17.1c0.1-1.1,0.2-2.1,0.2-3.1
			c0-4.7-1.7-7.2-5.4-7.6l33.6-9.3c-0.9,5-1.4,9.3-1.4,12.9c0,9.6,2.3,19.4,7,29.4c0.1-2.7,0.2-5.4,0.2-8.1c0-16.7-2.8-32-8.5-46
			L534,44.2z"/>
	</svg>

	<svg id="icon-undo" viewBox="0 0 13 13">
		<style type="text/css">
			.st0{fill:#333;}
		</style>
		<path class="st0" d="M6.5,1.9C5,1.9,3.6,2.5,2.6,3.5L1,1.9V6h4.1L3.6,4.5c0.7-0.7,1.8-1.2,2.9-1.2c2.3,0,4.1,1.8,4.1,4.1c0,1.2-0.5,2.3-1.4,3.1 l0.9,1c1.1-1,1.9-2.5,1.9-4.1C12,4.3,9.5,1.9,6.5,1.9z"/>
	</svg>

	<svg id="icon-redo" viewBox="0 0 13 13">
		<style type="text/css">
			.st0{fill:#333;}
		</style>
		<path class="st0" d="M1,7.4c0,1.6,0.7,3.1,1.8,4.1l0.9-1C2.9,9.7,2.4,8.6,2.4,7.4c0-2.3,1.8-4.1,4.1-4.1c1.1,0,2.2,0.5,2.9,1.2L7.9,6H12V1.9 l-1.6,1.6c-1-1-2.4-1.6-3.9-1.6C3.5,1.9,1,4.4,1,7.4z"/>
	</svg>

	<svg id="icon-cog" viewBox="0 0 13 13">
		<style type="text/css">
			.st0{fill:#333;}
		</style>
		<path class="st0" d="M10.6,7c0-0.2,0-0.3,0-0.5c0-0.2,0-0.4,0-0.5l1.2-0.9c0.1-0.1,0.1-0.2,0.1-0.3l-1.1-1.9c-0.1-0.1-0.2-0.2-0.3-0.1L9,3.2
			C8.7,3,8.4,2.8,8.1,2.7L7.9,1.2C7.8,1.1,7.7,1,7.6,1H5.4C5.3,1,5.2,1.1,5.1,1.2L4.9,2.7C4.6,2.8,4.3,3,4,3.2L2.6,2.7
			c-0.1,0-0.3,0-0.3,0.1L1.2,4.7C1.1,4.8,1.2,5,1.3,5.1L2.4,6c0,0.2-0.1,0.4-0.1,0.5s0,0.4,0,0.5L1.3,7.9C1.2,8,1.1,8.2,1.2,8.3
			l1.1,1.9c0.1,0.1,0.2,0.2,0.3,0.1L4,9.8c0.3,0.2,0.6,0.4,0.9,0.5l0.2,1.5c0,0.1,0.1,0.2,0.3,0.2h2.2c0.1,0,0.3-0.1,0.3-0.2l0.2-1.5
			C8.4,10.2,8.7,10,9,9.8l1.4,0.5c0.1,0,0.3,0,0.3-0.1l1.1-1.9c0.1-0.1,0-0.3-0.1-0.3L10.6,7z M6.5,8.9c-1.3,0-2.4-1.1-2.4-2.4
			s1.1-2.4,2.4-2.4s2.4,1.1,2.4,2.4S7.8,8.9,6.5,8.9z"/>
	</svg>

	<svg id="icon-heart" viewBox="0 0 13 13">
		<path fill="#333" d="M12.9,4.4c0,1.7-1.6,3.1-1.6,3.2l-4.4,4.3C6.7,11.9,6.6,12,6.5,12s-0.2,0-0.3-0.1L1.7,7.6C1.7,7.5,0.1,6.1,0.1,4.4
			C0.1,2.3,1.4,1,3.5,1c1.2,0,2.4,1,3,1.5C7.1,2,8.2,1,9.5,1C11.6,1,12.9,2.3,12.9,4.4z"/>
	</svg>

	<svg id="neg-nw-ne" viewBox="0 0 6 16">
		<style type="text/css">
			.st0{fill:#999;}
			.st1{fill:#7e7e7e;stroke:#adadad;stroke-width:1.1;stroke-miterlimit:10;}
			.st2{fill:none;stroke:#333;stroke-width:2;stroke-miterlimit:10;}
		</style>
		<rect class="st0" width="6" height="6"/>
		<path class="st1" d="M6,0.5C3,0.5,0.5,3,0.5,6.1V16c0-3.1,2.5-5.6,5.5-5.6"/>
		<path class="st2" d="M6,11L6,11c-2.7,0-5,2.2-5,5"/>
	</svg>

	<svg id="neg-ne-nw" viewBox="0 0 6 16">
		<style type="text/css">
			.st0{fill:#999;}
			.st1{fill:#7e7e7e;stroke:#adadad;stroke-width:1.1;stroke-miterlimit:10;}
			.st2{fill:none;stroke:#333;stroke-width:2;stroke-miterlimit:10;}
		</style>
		<rect class="st0" width="6" height="6"/>
		<path class="st1" d="M0,10.4c3,0,5.5,2.5,5.5,5.6V6.1C5.5,3,3,0.5,0,0.5"/>
		<path class="st2" d="M5,16c0-2.8-2.3-5-5-5l0,0"/>
	</svg>

	<svg id="neg-ne-es" viewBox="0 0 6 16">
		<style type="text/css">
			.st0{fill:#999;}
			.st1{fill:#8d8d8d;stroke:#848484;stroke-width:1.1;stroke-miterlimit:10;}
			.st2{fill:none;stroke:#333;stroke-width:2;stroke-miterlimit:10;}
		</style>
		<rect class="st0" y="10" width="6" height="6"/>
		<path class="st1" d="M6,5.6C3,5.6,0.5,3.1,0.5,0v9.9C0.5,13,3,15.5,6,15.5"/>
		<path class="st2" d="M1,0c0,2.8,2.3,5,5,5l0,0"/>
	</svg>

	<svg id="neg-ne-ws" viewBox="0 0 6 16">
		<style type="text/css">
			.st0{fill:#999;}
			.st1{fill:#8d8d8d;stroke:#848484;stroke-width:1.1;stroke-miterlimit:10;}
			.st2{fill:none;stroke:#333;stroke-width:2;stroke-miterlimit:10;}
		</style>
		<rect class="st0" y="10" width="6" height="6"/>
		<path class="st1" d="M0,15.5c3,0,5.5-2.5,5.5-5.6V0C5.5,3.1,3,5.6,0,5.6"/>
		<path class="st2" d="M0,5L0,5c2.7,0,5-2.2,5-5"/>
	</svg>

	<svg id="mini-neg-nw-ne" viewBox="0 0 6 7">
		<style type="text/css">
			.st0{fill:#999;}
			.st1{fill:#7e7e7e;stroke:#adadad;stroke-width:1.1;stroke-miterlimit:10;}
			.st2{fill:none;stroke:#222;stroke-width:2;stroke-miterlimit:10;}
		</style>
		<rect class="st0" width="6" height="5"/>
		<path class="st1" d="M6,0.6l-1.1,0c-3.4,0-4.4,2-4.4,5.5V9c0-2.7,2.1-4.2,4.5-4.3l1,0"/>
		<path class="st2" d="M1,10V9c0-2.5,1.3-4,4-4l0,0h1"/>
	</svg>

	<svg id="mini-neg-ne-nw" viewBox="0 0 6 10">
		<style type="text/css">
			.st0{fill:#999;}
			.st1{fill:#7e7e7e;stroke:#adadad;stroke-width:1.1;stroke-miterlimit:10;}
			.st2{fill:none;stroke:#222;stroke-width:2;stroke-miterlimit:10;}
		</style>
		<rect class="st0" width="6" height="5"/>
		<path class="st1" d="M0,4.8l1,0c2.4,0,4.5,1.5,4.5,4.3V6.1c0-3.5-1-5.5-4.4-5.5L0,0.6"/>
		<path class="st2" d="M5,10V9c0-2.5-1.3-4-4-4l0,0H0"/>
	</svg>

	<svg id="mini-neg-ne-es" viewBox="0 0 6 7">
		<style type="text/css">
			.st0{fill:#999;}
			.st1{fill:none;stroke:#222;stroke-miterlimit:10;}
		</style>
		<path class="st0" d="M6,5.5C3,5.6,1,3.3,1,0c0,0-0.5,0-1,0v7h6"/>
		<path class="st1" d="M1,0v1c0,2.5,1.4,4,4,4l0,0h1"/>
	</svg>

	<svg id="mini-neg-ne-ws" viewBox="0 0 6 7">
		<style type="text/css">
			.st0{fill:#999;}
			.st1{fill:none;stroke:#222;stroke-width:2;stroke-miterlimit:10;}
		</style>
		<path class="st0" d="M0,7h6V0C5,4.1,3.3,5.6,0,5.5"/>
		<path class="st1" d="M0,5h1l0,0c2.6,0,4-1.5,4-4V0"/>
	</svg>
	
	<svg id="icon-arrow-left" viewBox="0 0 21 21">
		<style type="text/css">
			.st0{fill:#fff;}
		</style>
		<polygon class="st0" points="18.2,10.3 2.8,3.6 6.8,10.3 2.8,17.4 "/>
	</svg>

	<svg id="icon-arrow-right" viewBox="0 0 21 21">
		<style type="text/css">
			.st0{fill:#fff;}
		</style>
		<polygon class="st0" points="2.8,10.7 18.2,17.4 14.2,10.7 18.2,3.6 "/>
	</svg>

	<svg id="icon-arrow-up" viewBox="0 0 21 21">
		<style type="text/css">
			.st0{fill:#fff;}
		</style>
		<polygon class="st0" points="10.3,2.8 3.6,18.2 10.3,14.2 17.4,18.2 "/>
	</svg>

	<svg id="icon-arrow-down" viewBox="0 0 21 21">
		<style type="text/css">
			.st0{fill:#fff;}
		</style>
		<polygon class="st0" points="10.7,18.2 17.4,2.8 10.7,6.8 3.6,2.8 "/>
	</svg>

	<svg id="icon-p" viewBox="0 0 21 21">
		<style type="text/css">
			.st0{fill:#fff;}
		</style>
		<path class="st0" d="M6.3,3h3.9c1.1,0,1.9,0.1,2.5,0.3c0.6,0.2,1,0.4,1.3,0.7s0.5,0.7,0.6,1.1c0.1,0.4,0.2,1.1,0.2,2.1v1.3c0,1-0.1,1.7-0.3,2.1
		s-0.6,0.8-1.1,1c-0.5,0.2-1.2,0.4-2.1,0.4h-1V18H6.3V3z M10.2,5.6v3.8c0.1,0,0.2,0,0.3,0c0.4,0,0.6-0.1,0.7-0.3s0.2-0.5,0.2-1.1
		V6.8c0-0.5-0.1-0.8-0.2-1C11,5.6,10.7,5.6,10.2,5.6z"/>
	</svg>

	<svg id="icon-escape" viewBox="0 0 21 21">
		<style type="text/css">
			.st0{fill:#fff;}
		</style>
		<path class="st0" d="M0.9,5.1h4.7v2.1H3.7v2.1h1.7v2.1H3.7v2.4h2v2.1H0.9V5.1z"/>
		<path class="st0" d="M12.5,8.4H9.9V7.6c0-0.4,0-0.6-0.1-0.7c0-0.1-0.2-0.1-0.3-0.1c-0.2,0-0.3,0.1-0.4,0.2C8.9,7.1,8.9,7.3,8.9,7.6
			c0,0.4,0,0.6,0.1,0.8S9.4,8.8,9.8,9c1.2,0.7,2.1,1.4,2.4,1.8c0.3,0.5,0.5,1.2,0.5,2.3c0,0.8-0.1,1.3-0.3,1.7
			c-0.2,0.4-0.5,0.7-1.1,0.9c-0.5,0.2-1.1,0.4-1.8,0.4c-0.7,0-1.4-0.1-1.9-0.4c-0.5-0.3-0.9-0.6-1.1-1.1c-0.2-0.5-0.2-1.1-0.2-1.9V12
			H9v1.3c0,0.4,0,0.7,0.1,0.8c0.1,0.1,0.2,0.2,0.4,0.2s0.3-0.1,0.4-0.2s0.1-0.4,0.1-0.6c0-0.6-0.1-1.1-0.3-1.2c-0.2-0.2-0.6-0.5-1.3-1
			c-0.7-0.5-1.1-0.8-1.4-1C6.8,10,6.7,9.7,6.5,9.4C6.4,9,6.3,8.6,6.3,8c0-0.8,0.1-1.4,0.3-1.8c0.2-0.4,0.5-0.7,1-0.9s1.1-0.3,1.7-0.3
			c0.7,0,1.4,0.1,1.9,0.4c0.5,0.2,0.9,0.5,1,0.9s0.2,1,0.2,1.8L12.5,8.4L12.5,8.4z"/>
		<path class="st0" d="M20.1,9.8h-2.8V8c0-0.5,0-0.9-0.1-1c0-0.1-0.2-0.2-0.4-0.2S16.4,6.9,16.3,7c0,0.2-0.1,0.5-0.1,1.1v5
			c0,0.5,0,0.9,0.1,1c0,0.2,0.2,0.2,0.4,0.2s0.4-0.1,0.4-0.2c0-0.2,0.1-0.5,0.1-1.1v-1.4h2.8V12c0,1.1-0.1,1.9-0.2,2.4
			c-0.1,0.5-0.5,0.9-1.1,1.2s-1.2,0.5-2,0.5c-0.8,0-1.5-0.1-2.1-0.5c-0.5-0.3-0.9-0.7-1.1-1.2c-0.2-0.5-0.3-1.3-0.3-2.4V8.9
			c0-0.8,0-1.4,0.1-1.7c0-0.4,0.2-0.8,0.5-1.1c0.3-0.4,0.6-0.6,1.1-0.9c0.5-0.2,1-0.3,1.6-0.3c0.8,0,1.5,0.2,2.1,0.5s0.9,0.7,1.1,1.2
			C20,7,20,7.8,20,8.8L20.1,9.8L20.1,9.8z"/>
	</svg>
</svg>