<svg xmlns="http://www.w3.org/2000/svg" width="0" height="0">

	<svg id="parabox-logo" viewBox="0 0 535 133" cache="keep">
		<style type="text/css">
			.parabox-st0{fill:#f2f2f2;}
			.parabox-st1{fill:#f2f2f2;transform:translate(10px,0px)}
		</style>
		<path class="parabox-st0" d="M81.2,7.4c13.9,1.4,21.2,5.5,21.9,12.5c0.1,0.9,0.1,1.7,0.1,2.7c0,6.3-1.9,13.5-5.6,21.6C93.3,53.3,81.1,63,64,73.1
			c2.9,3.9,3.5,7.7,5,10.8c4.4,9.6,13.7,10.5,17.6,11c4.9,8.5,9.4,16.8,13.4,24.8c-23.4-0.4-43.6,0.7-60.5,3.2c0-7.9-0.8-16-2.4-24
			c2.8-1.6,5.5-3,8.1-4.4c-5-11.3-9.5-35.9-13.6-50c-3.8,0.4-5.9,4.3-6.2,11.8C17.7,41.7,10.7,25,4.3,6.3C41.7,5.6,67.4,6,81.2,7.4z
			 M58,62.6C65.8,57,70,53,70.7,50.5c0.3-1.1,0.4-2,0.4-2.8c0-2-1.2-3-3.5-3.4h-5.7c-3.3,0-7.3,0.1-12.3,0.4
			C51.4,50.9,54.1,56.9,58,62.6z"/>
		<path class="parabox-st0" d="M166,73.8c0,4.4-2.2,10.2-6.5,17.4c3.2-0.5,6.7-0.8,10.6-0.8c1,0,2.1,0,3.1,0.1l-17.8,36.7c0.2-0.9,0.3-1.8,0.3-2.8
			c0-2.4-0.7-3.6-2.1-3.6c-0.7,0-1.6,0.2-2.7,0.6c-4.6,2.1-8.1,4-10.8,5.4c-2.9,1.6-5.9,2.4-9,2.4c-8.6,0-17.2-5.9-25.7-17.7
			c-5.3-7.3-7.9-13.2-7.9-17.8c0-5.6,3.9-8.6,11.6-9.2L94.3,69.4l2.7-3.3c4.3,2.6,10,3.9,17.4,3.9c9.2,0,20.7-2.1,34.7-6.2
			C160.4,63.5,166,66.8,166,73.8z M120.8,97.7c-2.4,0-3.7,0.5-3.7,1.6c0,0.5,0.3,1.3,0.9,2.2c1.5,2.9,3.7,4.4,6.7,4.4
			c3.5,0,7.9-2,13.4-6l-4.7-0.8C127.3,98.2,123.1,97.7,120.8,97.7z M130.6,84.8c4.3,0.2,9.6,1.1,15.6,2.7c0.9-0.8,1.9-2.3,3.1-4.4
			c0.5-0.9,0.8-1.6,0.8-1.8c0-0.5-0.5-0.8-1.5-0.8c-0.8,0-2,0.2-3.6,0.4C140.7,81.6,136,82.9,130.6,84.8z"/>
		<path class="parabox-st0" d="M167.3,25.9c7.2,1.1,52.6-12.3,52.6-12.3c0.7,8.8,9.9,1.9,10.2,13.2c0.8,27.5-9.1,43-26.5,46.4c1.9-0.2,3.9-0.4,6.1-0.4
			c4.1,0,8.6,0.5,13.6,1.5c6.5,1.2,11,3.1,13.7,5.4c3.8,3.3,6.3,8.9,7.6,16.8c0.9,5.6,1.8,9.2,2.5,10.9c1.4,3.2,3.6,4.5,6.6,4.2
			l-0.2,13.9l-38,0.1c0.1-3,0.1-11.9,0.1-14.6c0-14.1-1-22.1-2.9-23.7c-1.9-1.8-4.4-2.9-7.4-3.2c-2.7-0.1-5.3-0.3-7.9-0.4l0.9,4.4
			l8.4,3.8l6.3,20.2l-1.8,6.8c-4.3-0.4-9.1-0.7-14.3-0.7c-5.6,0-11.7,0.3-18.4,0.8c-0.6-6.7-1.5-14.4-2.7-22.9l5.6-6.2l-1.4-7.1
			c-2.3,0-4.4,0.1-6.2,0.3l-2.2-14.8c1.5-0.2,3.3-0.7,5.5-1.5l-1-5.8l-1.2-9.4c-3.7,0.8-9.8,1.8-13.7,7.2
			C158.1,51.5,170.5,35.2,167.3,25.9z M193.2,63c8.3-2.1,12.4-5.8,12.4-11.2c0-0.4,0-0.8-0.1-1.2c-1-0.1-2.5-0.2-4.4-0.2
			c-2.7,0-6.2,0.1-10.7,0.4L193.2,63z"/>
		<path class="parabox-st0" d="M317.9,62c0,4.7-2.3,10.9-7,18.6c3.4-0.6,7.2-0.9,11.3-0.9c1.1,0,2.3,0,3.4,0.1l-15.9,37.6c0.2-1-2.2-1-5.1,0.3
			c2.1-3.5,1.5-5.4,0-5.4c-0.8,0-1.7,0.2-2.9,0.6c-4.9,2.3-8.7,4.2-11.6,5.8c-3.1,1.7-6.3,2.6-9.7,2.6c-9.2,0-18.4-6.3-27.5-19
			c-5.6-7.9-8.5-14.2-8.5-19.1c0-6,4.1-9.2,12.4-9.8l-12.8-20.2l2.8-3.5c3.1,4.3,7.8,8.2,15.6,8.2c9.8,0,22.2-2.2,37.2-6.6
			C312.9,47.6,317.9,54.4,317.9,62z M269.4,87.6c-2.6,0-4,0.6-4,1.7c0,0.6,0.3,1.4,1,2.4c1.6,3.1,4,4.7,7.2,4.7
			c3.7,0,8.5-2.2,14.4-6.4l-5.1-0.8C276.4,88.1,271.9,87.6,269.4,87.6z M280,73.7c4.7,0.2,10.2,1.2,16.7,2.9c0.9-0.9,2-2.4,3.3-4.7
			c0.5-1,0.8-1.7,0.8-2c0-0.5-0.5-0.8-1.6-0.8c-0.9,0-2.2,0.2-3.9,0.5C290.8,70.3,285.7,71.7,280,73.7z"/>
		<path class="parabox-st0" d="M344.2,19.7c2.6-1.4,5.3-2.4,8.3-3.2c9.4,0.1,14.1,4.2,14.1,12.4c0,7-3.5,17-10.4,30.1c2-0.3,4-0.4,5.8-0.4
			c14.1,0,21.9,7.1,23.6,21.4c0.2,1.8,0.3,3.5,0.3,5.2c0,22.5-17.9,35-53.7,37.4c-7.4,0.5-13.8,3.1-19.2,7.8c-1.5-0.9-3.3-1.7-5.4-2.4
			l21-40.2l3.6,1.2l-3.3-30.3l-5.7,8.7l-6.5-25.2l10.1-9.2l0.8-5l16.7-12.5L344.2,19.7z M343.4,42.2c-0.6,0.8-0.9,2.4-0.9,4.9
			c0,2.7,0.4,6.5,1.1,11.4c3.3-4.5,5.6-9.7,6.9-15.5l0.9-3.7c-0.4-1.7-1.1-2.6-2.1-2.6c-1.2,0-3,1.4-5.3,4.2L343.4,42.2z M346,78.2
			l1.8,7.4l2.2,6.7c1.2,0.4,3.1,0.3,5.6-0.3c6.9-1.5,10.7-4,11.6-7.4c0.3-1,0.4-2,0.4-2.8c0.1-4.1-2.8-6.2-8.2-6.2
			c-1.7,0-3.6,0.2-5.6,0.7L346,78.2z"/>
		<!-- <path d="M432.5,22.9c-3.1,1.9-4.7,3.7-4.7,5.3c0,0.3,0,0.6,0.2,1c0.8,1.9,3.4,4.6,7.7,7.9c4.2,3.2,7,5.7,8.7,7.5
			c2.8,2.9,4.7,6.2,5.9,9.7c0.3,1.1,0.5,2.3,0.5,3.7c0,2.9-0.8,6.3-2.4,10.2c-2.4,5.7-7.6,10.8-15.6,15.4c-7.3,4.1-14.9,6.2-22.7,6.2
			c-0.8,0-1.6,0-2.4,0c-7.4-0.4-12.7-2.6-16-6.5c-3.2-3.7-4.6-9.3-4.4-16.8c0.2-10.2,2.8-17.8,7.8-22.9l-6.3-4.3
			c15.6-7,28.9-13.9,40.1-20.8L432.5,22.9z M398.8,60.4c0,0.6,0,1.2,0.1,1.8c0.3,3.8,1.7,5.7,4.4,5.7c1.5,0,3.4-0.6,5.6-1.8
			c3.3-1.8,4.9-3.9,4.9-6.2c0-3.3-3.4-7-10.4-11C400.3,51.7,398.8,55.5,398.8,60.4z"/> -->
		<path class="parabox-st1" d="M520.8,56.7c-1.7,3.3-4.8,7.4-9.2,12.2c-6.4,7.1-9.8,11-10.4,11.7c3.7,4.1,7.5,6.8,11.2,8.2c2.3,0.8,4.4,1.2,6.2,1.2
			c1.1,0,2.2-0.2,3.1-0.5c2.4-0.8,5.2-2.7,8.3-5.7l-22.1,40.2c-1.4,0.1-3.7-1.7-7.3-5.4c-2.6-2.8-4.7-5.2-6.1-7.3
			c-2.8-4-5.6-9.1-8.6-15.3c-5.9,6.6-12.2,15.4-19.1,26.4c-6.7-12.5-14.9-24.4-24.4-35.6c7.4-5.2,13.6-11,18.5-17.4l5.9,11.7l-9.3,5.3
			c1.8-2.2,2.7-3.6,2.7-4.5c0-0.5-0.3-0.7-1-0.7c-1.8,0.1-2.9,0.9-3.5,2.5c-0.4,1-0.6,1.9-0.6,2.6c0,1.4,1.2,2.4,3.7,3.1
			c0.4,0.1,0.8,0.2,1.1,0.2c1.9,0,4.3-1.1,7.2-3.4c3.5-2.7,6.5-5.5,9-8.4c-1.5-2.4-2.9-4.9-4.3-7.4c-2-3.1-3.7-5.3-5.4-6.6
			c-1.4-1.1-3.1-1.6-5.3-1.5c-2.1,0.2-3.7,0.8-4.9,1.9l-2.6-3l26.3-20.4c1.5,9.6,4.5,17.9,9.1,25c8.6-8.3,14.1-14.7,16.2-19.4
			c0.9-2,0.8-6.4-0.3-13.2L520.8,56.7z"/>
	</svg>

	<svg id="icon-undo" viewBox="0 0 13 13">
		<style type="text/css">
			.st0{fill:#333;}
		</style>
		<path class="st0" d="M6.5,1.9C5,1.9,3.6,2.5,2.6,3.5L1,1.9V6h4.1L3.6,4.5c0.7-0.7,1.8-1.2,2.9-1.2c2.3,0,4.1,1.8,4.1,4.1c0,1.2-0.5,2.3-1.4,3.1 l0.9,1c1.1-1,1.9-2.5,1.9-4.1C12,4.3,9.5,1.9,6.5,1.9z"/>
	</svg>

	<svg id="icon-redo" viewBox="0 0 13 13">
		<style type="text/css">
			.st0{fill:#333;}
		</style>
		<path class="st0" d="M1,7.4c0,1.6,0.7,3.1,1.8,4.1l0.9-1C2.9,9.7,2.4,8.6,2.4,7.4c0-2.3,1.8-4.1,4.1-4.1c1.1,0,2.2,0.5,2.9,1.2L7.9,6H12V1.9 l-1.6,1.6c-1-1-2.4-1.6-3.9-1.6C3.5,1.9,1,4.4,1,7.4z"/>
	</svg>

	<svg id="icon-cog" viewBox="0 0 13 13">
		<style type="text/css">
			.st0{fill:#333;}
		</style>
		<path class="st0" d="M10.6,7c0-0.2,0-0.3,0-0.5c0-0.2,0-0.4,0-0.5l1.2-0.9c0.1-0.1,0.1-0.2,0.1-0.3l-1.1-1.9c-0.1-0.1-0.2-0.2-0.3-0.1L9,3.2
			C8.7,3,8.4,2.8,8.1,2.7L7.9,1.2C7.8,1.1,7.7,1,7.6,1H5.4C5.3,1,5.2,1.1,5.1,1.2L4.9,2.7C4.6,2.8,4.3,3,4,3.2L2.6,2.7
			c-0.1,0-0.3,0-0.3,0.1L1.2,4.7C1.1,4.8,1.2,5,1.3,5.1L2.4,6c0,0.2-0.1,0.4-0.1,0.5s0,0.4,0,0.5L1.3,7.9C1.2,8,1.1,8.2,1.2,8.3
			l1.1,1.9c0.1,0.1,0.2,0.2,0.3,0.1L4,9.8c0.3,0.2,0.6,0.4,0.9,0.5l0.2,1.5c0,0.1,0.1,0.2,0.3,0.2h2.2c0.1,0,0.3-0.1,0.3-0.2l0.2-1.5
			C8.4,10.2,8.7,10,9,9.8l1.4,0.5c0.1,0,0.3,0,0.3-0.1l1.1-1.9c0.1-0.1,0-0.3-0.1-0.3L10.6,7z M6.5,8.9c-1.3,0-2.4-1.1-2.4-2.4
			s1.1-2.4,2.4-2.4s2.4,1.1,2.4,2.4S7.8,8.9,6.5,8.9z"/>
	</svg>

	<svg id="icon-heart" viewBox="0 0 13 13">
		<path fill="#333" d="M12.9,4.4c0,1.7-1.6,3.1-1.6,3.2l-4.4,4.3C6.7,11.9,6.6,12,6.5,12s-0.2,0-0.3-0.1L1.7,7.6C1.7,7.5,0.1,6.1,0.1,4.4
			C0.1,2.3,1.4,1,3.5,1c1.2,0,2.4,1,3,1.5C7.1,2,8.2,1,9.5,1C11.6,1,12.9,2.3,12.9,4.4z"/>
	</svg>

	<svg id="neg-nw-ne" viewBox="0 0 6 16">
		<style type="text/css">
			.st0{fill:#999;}
			.st1{fill:#7e7e7e;stroke:#adadad;stroke-width:1.1;stroke-miterlimit:10;}
			.st2{fill:none;stroke:#333;stroke-width:2;stroke-miterlimit:10;}
		</style>
		<rect class="st0" width="6" height="6"/>
		<path class="st1" d="M6,0.5C3,0.5,0.5,3,0.5,6.1V16c0-3.1,2.5-5.6,5.5-5.6"/>
		<path class="st2" d="M6,11L6,11c-2.7,0-5,2.2-5,5"/>
	</svg>

	<svg id="neg-ne-nw" viewBox="0 0 6 16">
		<style type="text/css">
			.st0{fill:#999;}
			.st1{fill:#7e7e7e;stroke:#adadad;stroke-width:1.1;stroke-miterlimit:10;}
			.st2{fill:none;stroke:#333;stroke-width:2;stroke-miterlimit:10;}
		</style>
		<rect class="st0" width="6" height="6"/>
		<path class="st1" d="M0,10.4c3,0,5.5,2.5,5.5,5.6V6.1C5.5,3,3,0.5,0,0.5"/>
		<path class="st2" d="M5,16c0-2.8-2.3-5-5-5l0,0"/>
	</svg>

	<svg id="neg-ne-es" viewBox="0 0 6 16">
		<style type="text/css">
			.st0{fill:#999;}
			.st1{fill:#8d8d8d;stroke:#848484;stroke-width:1.1;stroke-miterlimit:10;}
			.st2{fill:none;stroke:#333;stroke-width:2;stroke-miterlimit:10;}
		</style>
		<rect class="st0" y="10" width="6" height="6"/>
		<path class="st1" d="M6,5.6C3,5.6,0.5,3.1,0.5,0v9.9C0.5,13,3,15.5,6,15.5"/>
		<path class="st2" d="M1,0c0,2.8,2.3,5,5,5l0,0"/>
	</svg>

	<svg id="neg-ne-ws" viewBox="0 0 6 16">
		<style type="text/css">
			.st0{fill:#999;}
			.st1{fill:#8d8d8d;stroke:#848484;stroke-width:1.1;stroke-miterlimit:10;}
			.st2{fill:none;stroke:#333;stroke-width:2;stroke-miterlimit:10;}
		</style>
		<rect class="st0" y="10" width="6" height="6"/>
		<path class="st1" d="M0,15.5c3,0,5.5-2.5,5.5-5.6V0C5.5,3.1,3,5.6,0,5.6"/>
		<path class="st2" d="M0,5L0,5c2.7,0,5-2.2,5-5"/>
	</svg>

	<svg id="mini-neg-nw-ne" viewBox="0 0 6 7">
		<style type="text/css">
			.st0{fill:#999;}
			.st1{fill:#7e7e7e;stroke:#adadad;stroke-width:1.1;stroke-miterlimit:10;}
			.st2{fill:none;stroke:#222;stroke-width:2;stroke-miterlimit:10;}
		</style>
		<rect class="st0" width="6" height="5"/>
		<path class="st1" d="M6,0.6l-1.1,0c-3.4,0-4.4,2-4.4,5.5V9c0-2.7,2.1-4.2,4.5-4.3l1,0"/>
		<path class="st2" d="M1,10V9c0-2.5,1.3-4,4-4l0,0h1"/>
	</svg>

	<svg id="mini-neg-ne-nw" viewBox="0 0 6 10">
		<style type="text/css">
			.st0{fill:#999;}
			.st1{fill:#7e7e7e;stroke:#adadad;stroke-width:1.1;stroke-miterlimit:10;}
			.st2{fill:none;stroke:#222;stroke-width:2;stroke-miterlimit:10;}
		</style>
		<rect class="st0" width="6" height="5"/>
		<path class="st1" d="M0,4.8l1,0c2.4,0,4.5,1.5,4.5,4.3V6.1c0-3.5-1-5.5-4.4-5.5L0,0.6"/>
		<path class="st2" d="M5,10V9c0-2.5-1.3-4-4-4l0,0H0"/>
	</svg>

	<svg id="mini-neg-ne-es" viewBox="0 0 6 7">
		<style type="text/css">
			.st0{fill:#999;}
			.st1{fill:none;stroke:#222;stroke-miterlimit:10;}
		</style>
		<path class="st0" d="M6,5.5C3,5.6,1,3.3,1,0c0,0-0.5,0-1,0v7h6"/>
		<path class="st1" d="M1,0v1c0,2.5,1.4,4,4,4l0,0h1"/>
	</svg>

	<svg id="mini-neg-ne-ws" viewBox="0 0 6 7">
		<style type="text/css">
			.st0{fill:#999;}
			.st1{fill:none;stroke:#222;stroke-width:2;stroke-miterlimit:10;}
		</style>
		<path class="st0" d="M0,7h6V0C5,4.1,3.3,5.6,0,5.5"/>
		<path class="st1" d="M0,5h1l0,0c2.6,0,4-1.5,4-4V0"/>
	</svg>
	
	<svg id="icon-arrow-left" viewBox="0 0 21 21">
		<style type="text/css">
			.st0{fill:#fff;}
		</style>
		<polygon class="st0" points="18.2,10.3 2.8,3.6 6.8,10.3 2.8,17.4 "/>
	</svg>

	<svg id="icon-arrow-right" viewBox="0 0 21 21">
		<style type="text/css">
			.st0{fill:#fff;}
		</style>
		<polygon class="st0" points="2.8,10.7 18.2,17.4 14.2,10.7 18.2,3.6 "/>
	</svg>

	<svg id="icon-arrow-up" viewBox="0 0 21 21">
		<style type="text/css">
			.st0{fill:#fff;}
		</style>
		<polygon class="st0" points="10.3,2.8 3.6,18.2 10.3,14.2 17.4,18.2 "/>
	</svg>

	<svg id="icon-arrow-down" viewBox="0 0 21 21">
		<style type="text/css">
			.st0{fill:#fff;}
		</style>
		<polygon class="st0" points="10.7,18.2 17.4,2.8 10.7,6.8 3.6,2.8 "/>
	</svg>

	<svg id="icon-p" viewBox="0 0 21 21">
		<style type="text/css">
			.st0{fill:#fff;}
		</style>
		<path class="st0" d="M6.3,3h3.9c1.1,0,1.9,0.1,2.5,0.3c0.6,0.2,1,0.4,1.3,0.7s0.5,0.7,0.6,1.1c0.1,0.4,0.2,1.1,0.2,2.1v1.3c0,1-0.1,1.7-0.3,2.1
		s-0.6,0.8-1.1,1c-0.5,0.2-1.2,0.4-2.1,0.4h-1V18H6.3V3z M10.2,5.6v3.8c0.1,0,0.2,0,0.3,0c0.4,0,0.6-0.1,0.7-0.3s0.2-0.5,0.2-1.1
		V6.8c0-0.5-0.1-0.8-0.2-1C11,5.6,10.7,5.6,10.2,5.6z"/>
	</svg>

	<svg id="icon-escape" viewBox="0 0 21 21">
		<style type="text/css">
			.st0{fill:#fff;}
		</style>
		<path class="st0" d="M0.9,5.1h4.7v2.1H3.7v2.1h1.7v2.1H3.7v2.4h2v2.1H0.9V5.1z"/>
		<path class="st0" d="M12.5,8.4H9.9V7.6c0-0.4,0-0.6-0.1-0.7c0-0.1-0.2-0.1-0.3-0.1c-0.2,0-0.3,0.1-0.4,0.2C8.9,7.1,8.9,7.3,8.9,7.6
			c0,0.4,0,0.6,0.1,0.8S9.4,8.8,9.8,9c1.2,0.7,2.1,1.4,2.4,1.8c0.3,0.5,0.5,1.2,0.5,2.3c0,0.8-0.1,1.3-0.3,1.7
			c-0.2,0.4-0.5,0.7-1.1,0.9c-0.5,0.2-1.1,0.4-1.8,0.4c-0.7,0-1.4-0.1-1.9-0.4c-0.5-0.3-0.9-0.6-1.1-1.1c-0.2-0.5-0.2-1.1-0.2-1.9V12
			H9v1.3c0,0.4,0,0.7,0.1,0.8c0.1,0.1,0.2,0.2,0.4,0.2s0.3-0.1,0.4-0.2s0.1-0.4,0.1-0.6c0-0.6-0.1-1.1-0.3-1.2c-0.2-0.2-0.6-0.5-1.3-1
			c-0.7-0.5-1.1-0.8-1.4-1C6.8,10,6.7,9.7,6.5,9.4C6.4,9,6.3,8.6,6.3,8c0-0.8,0.1-1.4,0.3-1.8c0.2-0.4,0.5-0.7,1-0.9s1.1-0.3,1.7-0.3
			c0.7,0,1.4,0.1,1.9,0.4c0.5,0.2,0.9,0.5,1,0.9s0.2,1,0.2,1.8L12.5,8.4L12.5,8.4z"/>
		<path class="st0" d="M20.1,9.8h-2.8V8c0-0.5,0-0.9-0.1-1c0-0.1-0.2-0.2-0.4-0.2S16.4,6.9,16.3,7c0,0.2-0.1,0.5-0.1,1.1v5
			c0,0.5,0,0.9,0.1,1c0,0.2,0.2,0.2,0.4,0.2s0.4-0.1,0.4-0.2c0-0.2,0.1-0.5,0.1-1.1v-1.4h2.8V12c0,1.1-0.1,1.9-0.2,2.4
			c-0.1,0.5-0.5,0.9-1.1,1.2s-1.2,0.5-2,0.5c-0.8,0-1.5-0.1-2.1-0.5c-0.5-0.3-0.9-0.7-1.1-1.2c-0.2-0.5-0.3-1.3-0.3-2.4V8.9
			c0-0.8,0-1.4,0.1-1.7c0-0.4,0.2-0.8,0.5-1.1c0.3-0.4,0.6-0.6,1.1-0.9c0.5-0.2,1-0.3,1.6-0.3c0.8,0,1.5,0.2,2.1,0.5s0.9,0.7,1.1,1.2
			C20,7,20,7.8,20,8.8L20.1,9.8L20.1,9.8z"/>
	</svg>
</svg>