<svg xmlns="http://www.w3.org/2000/svg" width="0" height="0">

	<svg id="icon-chevron-left" viewBox="0 0 13 13">
		<style type="text/css">
			.st0{fill:#333;}
		</style>
		<polygon class="st0" points="9.2,1.6 8.5,0.8 3.5,5.8 3.5,5.8 2.8,6.5 3.5,7.2 8.5,12.2 9.2,11.4 4.2,6.5 "/>
	</svg>

	<svg id="icon-chevron-right" viewBox="0 0 13 13">
		<style type="text/css">
			.st0{fill:#333;}
		</style>
		<polygon class="st0" points="2.8,11.4 3.5,12.2 8.5,7.2 8.5,7.2 9.2,6.5 8.5,5.8 3.5,0.8 2.8,1.6 7.8,6.5 "/>
	</svg>

	<svg id="neg-nw-ne" viewBox="0 0 6 16">
		<style type="text/css">
			.st0{fill:#999;}
			.st1{fill:#7e7e7e;stroke:#adadad;stroke-width:1.1;stroke-miterlimit:10;}
			.st2{fill:none;stroke:#000;stroke-width:2;stroke-miterlimit:10;}
		</style>
		<rect class="st0" width="6" height="6"/>
		<path class="st1" d="M6,0.5C3,0.5,0.5,3,0.5,6.1V16c0-3.1,2.5-5.6,5.5-5.6"/>
		<path class="st2" d="M6,11L6,11c-2.7,0-5,2.2-5,5"/>
	</svg>

	<svg id="neg-ne-nw" viewBox="0 0 6 16">
		<style type="text/css">
			.st0{fill:#999;}
			.st1{fill:#7e7e7e;stroke:#adadad;stroke-width:1.1;stroke-miterlimit:10;}
			.st2{fill:none;stroke:#000;stroke-width:2;stroke-miterlimit:10;}
		</style>
		<rect class="st0" width="6" height="6"/>
		<path class="st1" d="M0,10.4c3,0,5.5,2.5,5.5,5.6V6.1C5.5,3,3,0.5,0,0.5"/>
		<path class="st2" d="M5,16c0-2.8-2.3-5-5-5l0,0"/>
	</svg>

	<svg id="neg-ne-es" viewBox="0 0 6 16">
		<style type="text/css">
			.st0{fill:#999;}
			.st1{fill:#8d8d8d;stroke:#848484;stroke-width:1.1;stroke-miterlimit:10;}
			.st2{fill:none;stroke:#000;stroke-width:2;stroke-miterlimit:10;}
		</style>
		<rect class="st0" y="10" width="6" height="6"/>
		<path class="st1" d="M6,5.6C3,5.6,0.5,3.1,0.5,0v9.9C0.5,13,3,15.5,6,15.5"/>
		<path class="st2" d="M1,0c0,2.8,2.3,5,5,5l0,0"/>
	</svg>

	<svg id="neg-ne-ws" viewBox="0 0 6 16">
		<style type="text/css">
			.st0{fill:#999;}
			.st1{fill:#8d8d8d;stroke:#848484;stroke-width:1.1;stroke-miterlimit:10;}
			.st2{fill:none;stroke:#000;stroke-width:2;stroke-miterlimit:10;}
		</style>
		<rect class="st0" y="10" width="6" height="6"/>
		<path class="st1" d="M0,15.5c3,0,5.5-2.5,5.5-5.6V0C5.5,3.1,3,5.6,0,5.6"/>
		<path class="st2" d="M0,5L0,5c2.7,0,5-2.2,5-5"/>
	</svg>
</svg>