<svg xmlns="http://www.w3.org/2000/svg" width="0" height="0">

	<svg id="icon-undo" viewBox="0 0 13 13">
		<style type="text/css">
			.st0{fill:#333;}
		</style>
		<path class="st0" d="M6.5,1.9C5,1.9,3.6,2.5,2.6,3.5L1,1.9V6h4.1L3.6,4.5c0.7-0.7,1.8-1.2,2.9-1.2c2.3,0,4.1,1.8,4.1,4.1c0,1.2-0.5,2.3-1.4,3.1 l0.9,1c1.1-1,1.9-2.5,1.9-4.1C12,4.3,9.5,1.9,6.5,1.9z"/>
	</svg>

	<svg id="icon-redo" viewBox="0 0 13 13">
		<style type="text/css">
			.st0{fill:#333;}
		</style>
		<path class="st0" d="M1,7.4c0,1.6,0.7,3.1,1.8,4.1l0.9-1C2.9,9.7,2.4,8.6,2.4,7.4c0-2.3,1.8-4.1,4.1-4.1c1.1,0,2.2,0.5,2.9,1.2L7.9,6H12V1.9 l-1.6,1.6c-1-1-2.4-1.6-3.9-1.6C3.5,1.9,1,4.4,1,7.4z"/>
	</svg>

	<svg id="icon-cog" viewBox="0 0 13 13">
		<style type="text/css">
			.st0{fill:#333;}
		</style>
		<path class="st0" d="M10.6,7c0-0.2,0-0.3,0-0.5c0-0.2,0-0.4,0-0.5l1.2-0.9c0.1-0.1,0.1-0.2,0.1-0.3l-1.1-1.9c-0.1-0.1-0.2-0.2-0.3-0.1L9,3.2
			C8.7,3,8.4,2.8,8.1,2.7L7.9,1.2C7.8,1.1,7.7,1,7.6,1H5.4C5.3,1,5.2,1.1,5.1,1.2L4.9,2.7C4.6,2.8,4.3,3,4,3.2L2.6,2.7
			c-0.1,0-0.3,0-0.3,0.1L1.2,4.7C1.1,4.8,1.2,5,1.3,5.1L2.4,6c0,0.2-0.1,0.4-0.1,0.5s0,0.4,0,0.5L1.3,7.9C1.2,8,1.1,8.2,1.2,8.3
			l1.1,1.9c0.1,0.1,0.2,0.2,0.3,0.1L4,9.8c0.3,0.2,0.6,0.4,0.9,0.5l0.2,1.5c0,0.1,0.1,0.2,0.3,0.2h2.2c0.1,0,0.3-0.1,0.3-0.2l0.2-1.5
			C8.4,10.2,8.7,10,9,9.8l1.4,0.5c0.1,0,0.3,0,0.3-0.1l1.1-1.9c0.1-0.1,0-0.3-0.1-0.3L10.6,7z M6.5,8.9c-1.3,0-2.4-1.1-2.4-2.4
			s1.1-2.4,2.4-2.4s2.4,1.1,2.4,2.4S7.8,8.9,6.5,8.9z"/>
	</svg>

	<svg id="neg-nw-ne" viewBox="0 0 6 16">
		<style type="text/css">
			.st0{fill:#999;}
			.st1{fill:#7e7e7e;stroke:#adadad;stroke-width:1.1;stroke-miterlimit:10;}
			.st2{fill:none;stroke:#000;stroke-width:2;stroke-miterlimit:10;}
		</style>
		<rect class="st0" width="6" height="6"/>
		<path class="st1" d="M6,0.5C3,0.5,0.5,3,0.5,6.1V16c0-3.1,2.5-5.6,5.5-5.6"/>
		<path class="st2" d="M6,11L6,11c-2.7,0-5,2.2-5,5"/>
	</svg>

	<svg id="neg-ne-nw" viewBox="0 0 6 16">
		<style type="text/css">
			.st0{fill:#999;}
			.st1{fill:#7e7e7e;stroke:#adadad;stroke-width:1.1;stroke-miterlimit:10;}
			.st2{fill:none;stroke:#000;stroke-width:2;stroke-miterlimit:10;}
		</style>
		<rect class="st0" width="6" height="6"/>
		<path class="st1" d="M0,10.4c3,0,5.5,2.5,5.5,5.6V6.1C5.5,3,3,0.5,0,0.5"/>
		<path class="st2" d="M5,16c0-2.8-2.3-5-5-5l0,0"/>
	</svg>

	<svg id="neg-ne-es" viewBox="0 0 6 16">
		<style type="text/css">
			.st0{fill:#999;}
			.st1{fill:#8d8d8d;stroke:#848484;stroke-width:1.1;stroke-miterlimit:10;}
			.st2{fill:none;stroke:#000;stroke-width:2;stroke-miterlimit:10;}
		</style>
		<rect class="st0" y="10" width="6" height="6"/>
		<path class="st1" d="M6,5.6C3,5.6,0.5,3.1,0.5,0v9.9C0.5,13,3,15.5,6,15.5"/>
		<path class="st2" d="M1,0c0,2.8,2.3,5,5,5l0,0"/>
	</svg>

	<svg id="neg-ne-ws" viewBox="0 0 6 16">
		<style type="text/css">
			.st0{fill:#999;}
			.st1{fill:#8d8d8d;stroke:#848484;stroke-width:1.1;stroke-miterlimit:10;}
			.st2{fill:none;stroke:#000;stroke-width:2;stroke-miterlimit:10;}
		</style>
		<rect class="st0" y="10" width="6" height="6"/>
		<path class="st1" d="M0,15.5c3,0,5.5-2.5,5.5-5.6V0C5.5,3.1,3,5.6,0,5.6"/>
		<path class="st2" d="M0,5L0,5c2.7,0,5-2.2,5-5"/>
	</svg>
</svg>