<svg xmlns="http://www.w3.org/2000/svg" width="0" height="0">

	<svg id="icon-chevron-left" viewBox="0 0 13 13">
		<style type="text/css">
			.st0{fill:#333;}
		</style>
		<polygon class="st0" points="9.2,1.6 8.5,0.8 3.5,5.8 3.5,5.8 2.8,6.5 3.5,7.2 8.5,12.2 9.2,11.4 4.2,6.5 "/>
	</svg>

	<svg id="icon-chevron-right" viewBox="0 0 13 13">
		<style type="text/css">
			.st0{fill:#333;}
		</style>
		<polygon class="st0" points="2.8,11.4 3.5,12.2 8.5,7.2 8.5,7.2 9.2,6.5 8.5,5.8 3.5,0.8 2.8,1.6 7.8,6.5 "/>
	</svg>

	<svg id="neg-rne-n" viewBox="0 0 6 78">
		<style type="text/css">
			.st0{fill:#8D8D8D;stroke:#848484;stroke-width:1.1;stroke-miterlimit:10;}
			.st1{fill:none;stroke:#000;stroke-width:2;stroke-miterlimit:10;}
			.st2{stroke:#ddd;}
		</style>
		<path class="st0" d="M6,5.6C3,5.6,0.5,3.1,0.5,0v9.9C0.5,13,3,15.5,6,15.5"/>
		<path class="st1" d="M1,0c0,2.8,2.3,5,5,5l0,0"/>
		<line class="st2" x1="2" y1="78" x2="6" y2="78"/>
	</svg>

	<svg id="neg-rnw-n" viewBox="0 0 6 78">
		<style type="text/css">
			.st0{fill:#999;}
			.st1{fill:#8D8D8D;stroke:#848484;stroke-width:1.1;stroke-miterlimit:10;}
			.st2{fill:none;stroke:#000;stroke-width:2;stroke-miterlimit:10;}
			.st3{stroke:#ddd;}
		</style>
		<rect class="st0" x="0" y="5" width="6" height="11"/>
		<path class="st1" d="M0,15.5c3,0,5.5-2.5,5.5-5.6V0C5.5,3.1,3,5.6,0,5.6"/>
		<path class="st2" d="M0,5.1c2.7,0,5-2.3,5-5.1"/>
		<line class="st3" x1="0" y1="78" x2="4" y2="78"/>
	</svg>

	<svg id="neg-rse-s" viewBox="0 0 6 87">
		<style type="text/css">
			.st0{fill:#7e7e7e;stroke:#b1b1b1;stroke-width:1.1;stroke-miterlimit:10;}
			.st1{fill:none;stroke:#000;stroke-width:2;stroke-miterlimit:10;}
			.st2{fill:#8d8d8d;}
			.st3{stroke:#848484;}
		</style>
		<path class="st0" d="M6,71.5c-3,0-5.5,2.5-5.5,5.6V87c0-3.1,2.5-5.6,5.5-5.6"/>
		<path class="st1" d="M6,82L6,82c-2.7,0-5,2.2-5,5"/>
		<rect class="st2" y="0" width="6" height="9"/>
		<line class="st3" x1="0" y1="9.5" x2="6" y2="9.5"/>
	</svg>

	<svg id="neg-rsw-s" viewBox="0 0 6 87">
		<style type="text/css">
			.st0{fill:#7e7e7e;stroke:#b1b1b1;stroke-width:1.1;stroke-miterlimit:10;}
			.st1{fill:none;stroke:#000;stroke-width:2;stroke-miterlimit:10;}
			.st2{fill:#8d8d8d;}
			.st3{stroke:#848484;}
		</style>
		<path class="st0" d="M0,81.4c3,0,5.5,2.5,5.5,5.6v-9.9C5.5,74,3,71.5,0,71.5"/>
		<path class="st1" d="M5,87c0-2.8-2.3-5-5-5l0,0"/>
		<rect class="st2" y="0" width="6" height="9"/>
		<line class="st3" x1="0" y1="9.5" x2="6" y2="9.5"/>
	</svg>
</svg>